<?xml version="1.0" encoding="utf-8"?>
<!-- Generator: Adobe Illustrator 19.0.0, SVG Export Plug-In . SVG Version: 6.00 Build 0)  -->
<svg version="1.1" xmlns="http://www.w3.org/2000/svg" xmlns:xlink="http://www.w3.org/1999/xlink" x="0px" y="0px"
	 viewBox="0 0 75 75" style="enable-background:new 0 0 75 75;" xml:space="preserve">
<style type="text/css">
	.st0{fill:#c41d1d;}
</style>
<g id="Layer_1">
	<g id="XMLID_1_">
		<path id="XMLID_15_" class="st0" d="M37.5,5C55.4,5,70,19.6,70,37.5S55.4,70,37.5,70S5,55.4,5,37.5S19.6,5,37.5,5 M37.5,0
			C16.8,0,0,16.8,0,37.5S16.8,75,37.5,75S75,58.2,75,37.5S58.2,0,37.5,0L37.5,0z"/>
	</g>
</g>
<g id="Layer_2">
	<path id="XMLID_2_" class="st0" d="M39.3,45.9c-0.9,0-17,0-17,0s-5.8-1.8-2.5-7c-1.4-0.7-5-4-1-7.6c0,0-5-5.5,1-8.6
		c-0.7-1.3-1-7.5,4.6-7.4c5.2,0,23.9-0.4,24.2,0s9.5,1.8,9.5,9.7s0,16.2,0,16.2L42.2,63c0,0-5.1,4.9-7.6-4.4
		c-0.2-1.4,1.3-3.8,1.3-3.8l3.9-7.1C39.8,47.7,40.3,45.9,39.3,45.9z"/>
</g>
</svg>
