<?xml version="1.0" encoding="utf-8"?>
<!-- Generator: Adobe Illustrator 19.0.0, SVG Export Plug-In . SVG Version: 6.00 Build 0)  -->
<svg version="1.1" xmlns="http://www.w3.org/2000/svg" xmlns:xlink="http://www.w3.org/1999/xlink" x="0px" y="0px"
	 viewBox="0 0 75 75" style="enable-background:new 0 0 75 75;" xml:space="preserve">
<style type="text/css">
	.st0{fill:#232323;}
</style>
<g id="Layer_1">
	<g id="XMLID_1_">
		<path id="XMLID_16_" class="st0" d="M37.5,5C55.4,5,70,19.6,70,37.5S55.4,70,37.5,70S5,55.4,5,37.5S19.6,5,37.5,5 M37.5,0
			C16.8,0,0,16.8,0,37.5S16.8,75,37.5,75S75,58.2,75,37.5S58.2,0,37.5,0L37.5,0z"/>
	</g>
</g>
<g id="Layer_2">
</g>
<g id="Layer_3">
	<path id="XMLID_6_" class="st0" d="M45.6,43.6l-3.4,3.5c0,0-1.1,1.2-1.3,2.7c-0.2,1.5-1,6.2-1,6.2H17.3c0,0-2.5-0.1-2.5-2.5
		s0.9-11.8,12-13.4c2.8,0,10.7,0,10.7,0S41.6,39.8,45.6,43.6z"/>
	<path id="XMLID_8_" class="st0" d="M61.1,42.9l-5.5-5.5l3.2-3.2c0,0,1.9-1.5,3.4,0c1.5,1.5,2.4,2.4,2.4,2.4s1.2,1.7,0,2.9
		C63.4,40.7,61.1,42.9,61.1,42.9z"/>
	<path id="XMLID_9_" class="st0" d="M59.3,44.8L49.2,54.9l-5.7,1c0,0-1.1,0.4-0.9-0.6c0.2-1,1.2-6.2,1.2-6.2l9.9-9.9L59.3,44.8z"/>
	<circle id="XMLID_7_" class="st0" cx="32.4" cy="26" r="10"/>
</g>
</svg>
