<?xml version="1.0" encoding="utf-8"?>
<!-- Generator: Adobe Illustrator 19.0.0, SVG Export Plug-In . SVG Version: 6.00 Build 0)  -->
<svg version="1.1" id="Layer_1" xmlns="http://www.w3.org/2000/svg" xmlns:xlink="http://www.w3.org/1999/xlink" x="0px" y="0px"
	 viewBox="0 0 75 75" style="enable-background:new 0 0 75 75;" xml:space="preserve">
<style type="text/css">
	.st0{fill:#232323;}
</style>
<g id="Layer_1_1_">
	<g id="XMLID_1_">
		<path id="XMLID_16_" class="st0" d="M37.5,5C55.4,5,70,19.6,70,37.5S55.4,70,37.5,70S5,55.4,5,37.5S19.6,5,37.5,5 M37.5,0
			C16.8,0,0,16.8,0,37.5S16.8,75,37.5,75S75,58.2,75,37.5S58.2,0,37.5,0L37.5,0z"/>
	</g>
</g>
<g id="Layer_2">
</g>
<path class="st0" d="M60.8,39L45.5,54.4c-1.4,1.4-3.7,0.4-3.7-1.5v-8.7H29.4c-1.2,0-2.2-1-2.2-2.2v-8.7c0-1.2,1-2.2,2.2-2.2h12.4
	v-8.7c0-1.9,2.4-2.9,3.7-1.5L60.8,36C61.7,36.8,61.7,38.2,60.8,39z M33,53.9v-3.6c0-0.6-0.5-1.1-1.1-1.1h-7.7
	c-1.6,0-2.9-1.3-2.9-2.9V28.8c0-1.6,1.3-2.9,2.9-2.9h7.7c0.6,0,1.1-0.5,1.1-1.1v-3.6c0-0.6-0.5-1.1-1.1-1.1h-7.7
	c-4.8,0-8.7,3.9-8.7,8.7v17.5c0,4.8,3.9,8.7,8.7,8.7h7.7C32.5,55,33,54.5,33,53.9z"/>
</svg>
