<?xml version="1.0" encoding="utf-8"?>
<!-- Generator: Adobe Illustrator 19.0.0, SVG Export Plug-In . SVG Version: 6.00 Build 0)  -->
<svg version="1.1" xmlns="http://www.w3.org/2000/svg" xmlns:xlink="http://www.w3.org/1999/xlink" x="0px" y="0px"
	 viewBox="0 0 75 75" style="enable-background:new 0 0 75 75;" xml:space="preserve">
<style type="text/css">
	.st0{fill:#232323;}
</style>
<g id="Layer_1">
</g>
<g id="Layer_3">
	<path id="XMLID_6_" class="st0" d="M52.1,17.7H22.9c-2.9,0-5.2,2.4-5.2,5.2v29.1c0,2.9,2.4,5.2,5.2,5.2h29.3c2.9,0,5.2-2.4,5.2-5.2
		V22.9C57.4,20.1,55,17.7,52.1,17.7z M48.5,33.1c0,0-10.1,10.1-11.9,11.9c-1.8,1.8-3.8,0-3.8,0l-5.7-5.6c0,0-1.8-1.8,0-3.6
		c1.8-1.8,3.4-0.4,3.4-0.4l4.3,4.3l9.8-9.8c0,0,1.9-1.4,3.4,0.3C49.4,31.8,48.5,33.1,48.5,33.1z"/>
	<g id="XMLID_1_">
		<path id="XMLID_17_" class="st0" d="M37.5,5C55.4,5,70,19.6,70,37.5S55.4,70,37.5,70S5,55.4,5,37.5S19.6,5,37.5,5 M37.5,0
			C16.8,0,0,16.8,0,37.5S16.8,75,37.5,75S75,58.2,75,37.5S58.2,0,37.5,0L37.5,0z"/>
	</g>
</g>
</svg>
